<svg width="24" height="24" viewBox="0 0 24 24" fill="none" xmlns="http://www.w3.org/2000/svg">
<path d="M3.70317 20.0937H7.31254V9.25001H3.70317V20.0937ZM7.54691 5.90625C7.53129 4.84375 6.76567 4.03126 5.53129 4.03126C4.29691 4.03126 3.48442 4.84375 3.48442 5.90625C3.48442 6.93749 4.26566 7.78124 5.48442 7.78124H5.50004C6.76567 7.78124 7.54691 6.93749 7.54691 5.90625ZM16.6875 20.0937H20.2969V13.875C20.2969 10.5469 18.5157 8.99998 16.1407 8.99998C14.2032 8.99998 13.3438 10.0781 12.875 10.8281H12.9063V9.24998H9.29691C9.29691 9.24998 9.34378 10.2656 9.29691 20.0937H12.9063V14.0312C12.9063 13.7187 12.9219 13.3906 13.0157 13.1562C13.2813 12.5156 13.875 11.8437 14.875 11.8437C16.1719 11.8437 16.6875 12.8281 16.6875 14.2968V20.0937ZM24 4.49999V19.5C24 21.9843 21.9844 24 19.5 24H4.50005C2.01568 24 6.10352e-05 21.9843 6.10352e-05 19.5V4.49999C6.10352e-05 2.01562 2.01568 0 4.50005 0H19.5C21.9844 0 24 2.01562 24 4.49999Z" fill="#75715E"/>
</svg>
