<svg width="24" height="24" viewBox="0 0 24 24" fill="none" xmlns="http://www.w3.org/2000/svg">
<path d="M19.5001 0C21.9844 0 24.0001 2.01562 24.0001 4.49999V19.5C24.0001 21.9843 21.9844 24 19.5001 24H16.5626V14.7031H19.6719L20.1407 11.0781H16.5626V8.76561C16.5626 7.71873 16.8438 7.01561 18.3594 7.01561L20.2657 7V3.76562C19.9375 3.71875 18.7969 3.62499 17.4844 3.62499C14.7188 3.62499 12.8125 5.31248 12.8125 8.40623V11.0781H9.68754V14.7031H12.8125V24H4.50005C2.01568 24 6.10352e-05 21.9843 6.10352e-05 19.5V4.49999C6.10352e-05 2.01562 2.01568 0 4.50005 0H19.5001Z" fill="#75715E"/>
</svg>
